<svg version="1.1" xmlns="http://www.w3.org/2000/svg" xmlns:xlink="http://www.w3.org/1999/xlink" width="808.41844" height="712.52788" viewBox="0,0,256,225.625"><g fill="none" fill-rule="nonzero" stroke="none" stroke-width="1" stroke-linecap="butt" stroke-linejoin="miter" stroke-miterlimit="10" stroke-dasharray="" stroke-dashoffset="0" font-family="none" font-weight="none" font-size="none" text-anchor="none" style="mix-blend-mode: normal"><g transform="translate(0,-0.00478) scale(0.31667,0.31667)"><path transform="translate(-195.79078,-93.73606)" d="M714.96678,737.11091l-1.98354,-27.58851c-12.99345,-6.49526 -27.37602,-9.72056 -41.89885,-9.39586c20.43166,15.79292 18.7951,47.3576 32.9451,68.95961c9.0443,13.57928 23.77349,22.30825 40.02768,23.72162l17.00408,9.78252c3.93653,-26.01794 -3.71702,-52.45494 -20.94425,-72.34594c-4.83005,-5.46651 -10.32926,-10.30301 -16.36787,-14.39535c-3.71676,10.67107 -8.78235,21.26191 -8.78235,21.26191z" fill="#f2f2f2"></path><path transform="translate(-195.79078,-93.73606)" d="M613.68122,806.26394h389.281c0.6887,0 1.247,-0.5583 1.247,-1.247c0,-0.6887 -0.5583,-1.247 -1.247,-1.247h-389.28102c-0.6887,0 -1.247,0.5583 -1.247,1.247c0,0.6887 0.5583,1.247 1.247,1.247v0z" id="a8455189-ed55-4a18-ae95-69e4c9a5ea4d-52" fill="#cccccc"></path><path transform="translate(-195.79078,-93.73606)" d="M365.83032,508.54938v0.53376h0.372c-0.13479,-0.17015 -0.25903,-0.3484 -0.372,-0.53376zM368.69332,282.21182c-25.98477,33.79342 -40.0502,75.23899 -40.00088,117.86763c0.00583,6.4916 0.32385,12.89153 0.95408,19.19978c0.09714,1.08373 0.21008,2.16746 0.35619,3.235c3.6104,31.37113 14.88115,61.37278 32.81915,87.36145c0.695,1.019 1.40663,2.02188 2.119,3.02473c7.72218,10.82639 16.53795,20.82941 26.308,29.851c78.65278,72.62736 201.28967,67.74281 273.917,-10.91c1.116,-1.18075 2.18379,-2.37773 3.235,-3.57467c61.30853,-69.43379 64.86763,-172.55955 8.4919,-246.05488c-0.82534,-1.08373 -1.66578,-2.16745 -2.5392,-3.235c-1.91427,-2.4101 -3.8985,-4.77166 -5.9527,-7.08468c-1.05122,-1.197 -2.119,-2.39393 -3.235,-3.5747c-36.66115,-39.76197 -88.2891,-62.36753 -142.37286,-62.33867c-1.86,0 -3.70415,0.03236 -5.54832,0.08088c-1.22952,0.03229 -2.45871,0.08082 -3.68757,0.14557c-55.70362,2.64427 -107.56676,29.16225 -142.32467,72.77158c-0.87352,1.06756 -1.71386,2.15128 -2.5392,3.235zM366.20232,509.08314c-0.13479,-0.17017 -0.25906,-0.34842 -0.3721,-0.53376v0.53376z" fill="#ffffff"></path><path transform="translate(-195.79078,-93.73606)" d="M364.47187,506.55988l0.5497,-1.11608l41.18172,-82.92951v-0.01616l1.60171,-3.21885v-0.01616l68.03158,-137.05122v-0.01617l1.60171,-3.21884l0.01579,-0.01617l34.45334,-69.43951l1.64989,-3.31589c1.22952,-0.06467 2.45871,-0.11319 3.68756,-0.14557l-1.6333,3.29972l-34.54969,69.60125v0.01617l-1.60171,3.21884v0.01617l-69.81178,140.62592l-0.0158,0.01616l-41.18172,82.9942l-1.61751,3.235l-0.25905,0.5337l-1.6333,3.28354c-0.7124,-1.00285 -1.424,-2.00569 -2.119,-3.02473z" fill="#3f3d56"></path><path transform="translate(-195.79078,-93.73606)" d="M408.95327,419.27921v3.235h-78.95054c-0.14611,-1.06756 -0.25905,-2.15128 -0.35619,-3.235z" fill="#3f3d56"></path><path transform="translate(-195.79078,-93.73606)" d="M531.64654,444.51422v-3.235h78.95053c0.14611,1.06756 0.25905,2.15128 0.3562,3.235z" fill="#3f3d56"></path><path transform="translate(-195.79078,-93.73606)" d="M597.6824,433.24335h3.235v78.95053c-1.06756,0.14611 -2.15129,0.25905 -3.235,0.3562z" fill="#3f3d56"></path><path transform="translate(-195.79078,-93.73606)" d="M676.89288,282.21182c-0.82537,-1.08374 -1.66571,-2.16748 -2.53918,-3.23505h-5.95276v-7.08472c-1.05121,-1.1969 -2.1189,-2.3938 -3.235,-3.57464v10.65936h-293.93339c-0.87354,1.06757 -1.71387,2.15131 -2.53919,3.23505h296.47264v249.62951c1.116,-1.18078 2.18377,-2.37774 3.235,-3.57464v-246.05487z" fill="#3f3d56"></path><rect x="170.03564" y="412.11017" width="300.9565" height="3.23501" fill="#3f3d56"></rect><path transform="translate(-195.79078,-93.73606)" d="M365.83032,508.54938v0.53376h0.372c-0.13479,-0.17015 -0.25903,-0.3484 -0.372,-0.53376zM368.69332,282.21182c-25.98477,33.79342 -40.0502,75.23899 -40.00088,117.86763c0.00583,6.4916 0.32385,12.89153 0.95408,19.19978c0.09714,1.08373 0.21008,2.16746 0.35619,3.235c3.6104,31.37113 14.88115,61.37278 32.81915,87.36145c0.695,1.019 1.40663,2.02188 2.119,3.02473c7.72218,10.82639 16.53795,20.82941 26.308,29.851c78.65278,72.62736 201.28967,67.74281 273.917,-10.91c1.116,-1.18075 2.18379,-2.37773 3.235,-3.57467c61.30853,-69.43379 64.86763,-172.55955 8.4919,-246.05488c-0.82534,-1.08373 -1.66578,-2.16745 -2.5392,-3.235c-1.91427,-2.4101 -3.8985,-4.77166 -5.9527,-7.08468c-1.05122,-1.197 -2.119,-2.39393 -3.235,-3.5747c-36.66115,-39.76197 -88.2891,-62.36753 -142.37286,-62.33867c-1.86,0 -3.70415,0.03236 -5.54832,0.08088c-1.22952,0.03229 -2.45871,0.08082 -3.68757,0.14557c-55.70362,2.64427 -107.56676,29.16225 -142.32467,72.77158c-0.87352,1.06756 -1.71386,2.15128 -2.5392,3.235zM333.25352,422.51422c-0.14532,-1.06751 -0.25826,-2.15131 -0.372,-3.23506c-4.93041,-49.12829 9.36623,-98.25602 39.88793,-137.06741c0.85693,-1.08373 1.71465,-2.16745 2.604,-3.235c33.79747,-41.22448 83.31292,-66.41331 136.53388,-69.45567c1.22883,-0.06471 2.45854,-0.12941 3.704,-0.16175c2.37733,-0.09705 4.77121,-0.14557 7.18163,-0.14557c54.40844,-0.03212 106.22925,23.22307 142.37286,63.89146c1.116,1.22932 2.19958,2.45862 3.235,3.72027c0.631,0.7117 1.22892,1.42341 1.81179,2.15128c0.88931,1.06756 1.74624,2.15129 2.604,3.235c56.07274,71.19127 54.22602,172.03108 -4.41576,241.12154c-1.03543,1.26165 -2.119,2.49092 -3.235,3.72024c-9.84868,11.06492 -20.95341,20.94428 -33.08946,29.43812c-86.2606,60.37228 -205.13,39.38568 -265.50219,-46.87483c-0.12953,-0.17785 -0.25905,-0.3558 -0.372,-0.5337c-0.13479,-0.17015 -0.25903,-0.3484 -0.372,-0.53376c-0.46894,-0.66323 -0.92176,-1.32641 -1.35845,-1.98955c-16.99062,-25.10879 -27.69742,-53.93351 -31.21833,-84.04556zM366.2023,509.08314c-0.13479,-0.17017 -0.25906,-0.34842 -0.3721,-0.53376v0.53376z" fill="#cccccc"></path><path transform="translate(-195.79078,-93.73606)" d="M746.34016,608.55752h-193.65c-4.93011,-0.00553 -8.92537,-4.00079 -8.9309,-8.9309v-94.357c0.00553,-4.93011 4.00079,-8.92537 8.9309,-8.9309h193.65c4.93009,0.00557 8.92533,4.00081 8.9309,8.9309v94.357c-0.00557,4.93009 -4.00081,8.92533 -8.9309,8.9309z" fill="#ffd35c"></path><path transform="translate(-195.79078,-93.73606)" d="M661.04108,600.96511c-42.41065,0 -86.6333,-0.40527 -103.1333,-0.668c-4.51473,-0.09308 -8.13102,-3.77047 -8.14844,-8.28613v-86.73434c0.00175,-1.61876 1.31143,-2.93172 2.93018,-2.9375h193.64453c1.61842,0.0019 2.93106,1.31127 2.937,2.92968v58.84766c-0.07537,19.98161 -16.11678,36.23394 -36.0957,36.57031c-15.37792,0.20021 -33.58735,0.27832 -52.13427,0.27832z" fill="#bdac80"></path><path transform="translate(-195.79078,-93.73606)" d="M726.34755,556.56087h-157.56423c-2.09319,-0.00299 -3.95946,-1.31901 -4.66512,-3.28967l-17.83332,-50.03238c-0.5401,-1.51542 -0.3105,-3.19876 0.61573,-4.51417c0.92622,-1.31541 2.43365,-2.09899 4.04244,-2.10131l196.95789,-0.27483h0.00688c1.66476,0.00005 3.21812,0.83647 4.13454,2.22628c0.91643,1.38981 1.0733,3.14706 0.41755,4.67723l-0.27,-0.11561l0.27,0.11561l-21.56028,50.30721c-0.77917,1.822 -2.57047,3.00318 -4.55208,3.00164z" fill="#ffd35c"></path><path transform="translate(-195.79078,-93.73606)" d="M614.45231,591.23677h-54.33258c-2.78498,-0.00392 -5.04058,-2.26269 -5.04058,-5.04768c0,-2.78498 2.2556,-5.04376 5.04058,-5.04768h54.33258c2.78498,0.00392 5.04058,2.26269 5.04058,5.04768c0,2.78498 -2.2556,5.04376 -5.04058,5.04768z" fill="#ffd35c"></path><circle cx="453.4306" cy="462.82481" r="12.33819" fill="#3f3d56"></circle><path transform="translate(-195.79078,-93.73606)" d="M258.161,119.24859c63.13046,-44.45871 150.34871,-29.32228 194.80744,33.80816c44.45868,63.13047 89.06955,228.67432 57.57876,324.575c-93.92941,-99.21546 -238.233,-109.52515 -286.19436,-163.57575c-51.24834,-57.755 -29.32225,-150.34867 33.80816,-194.80741z" fill="#0d42ff"></path><circle cx="144.77165" cy="122.8712" r="45.59621" id="faf5c3b1-f7bb-4793-8f76-a694569c182e" fill="#ffffff"></circle><circle cx="353.30112" cy="403.68803" r="29.86454" id="e618366e-6f5c-4381-83a5-490aecbf791d" fill="#0d42ff"></circle><path transform="translate(-195.79078,-93.73606)" d="M291.77986,206.0863c-12.69716,21.74616 -5.3615,49.66799 16.38466,62.36515c21.74616,12.69716 49.66799,5.3615 62.36515,-16.38466c-16.81059,14.74749 -41.83613,15.12469 -59.08354,0.89054c-17.24741,-14.23415 -21.62422,-38.87687 -10.33333,-58.17972c-3.70069,3.24139 -6.85241,7.06032 -9.33294,11.30869z" fill="#231f20" opacity="0.2"></path><path transform="translate(-195.79078,-93.73606)" d="M224.2671,314.271c47.9613,54.05057 192.265,64.36029 286.19434,163.57574c2.93173,-9.07375 5.18835,-18.3519 6.7514,-27.75854c-93.88269,-90.19594 -230.15284,-101.59471 -276.49225,-153.8172c-41.47448,-46.7403 -35.01831,-116.29408 2.412,-164.69008c-51.33509,47.58584 -65.82972,129.76322 -18.86549,182.69008z" fill="#231f20" opacity="0.2"></path><path transform="translate(-195.79078,-93.73606)" d="M820.41976,505.24113l-19.36327,-5.89813c-8.42863,10.16294 -15.41749,39.60186 -15.41749,39.60186l-26.50137,43.06414c-3.92105,1.86139 -5.93764,6.27109 -4.78096,10.45457c1.15668,4.18348 5.15213,6.93092 9.47247,6.51366c4.32034,-0.41725 7.71616,-3.87853 8.05085,-8.20605l40.10863,-48.69278z" fill="#ffb6b6"></path><path transform="translate(-195.79078,-93.73606)" d="M820.04873,509.94074l3.57869,-29.312l-8.02122,-13.39574c-3.23184,-5.35295 -9.22155,-8.40794 -15.45224,-7.88124v0c-8.58635,0.78404 -15.09813,8.08486 -14.89927,16.70464c0.30089,12.59836 2.28566,28.5296 10.03108,32.88346l0.07849,0.04412z" fill="#0d42ff"></path><path d="M678.959,681.066l-11.611,5.604l-27.145,-42.12l17.138,-8.272z" fill="#ffb6b6"></path><path transform="translate(-195.79078,-93.73606)" d="M881.00666,786.71729l-35.70683,17.236l-0.218,-0.45156c-3.70476,-7.67556 -0.48642,-16.90116 7.18868,-20.60688l0.00086,-0.00042l4.13348,-8.09669l14.558,-0.92582l3.117,-1.5046z" fill="#2f2e41"></path><path d="M592.527,696.767l-12.893,-0.001l-6.134,-49.733l19.03,0.001z" fill="#ffb6b6"></path><path transform="translate(-195.79078,-93.73606)" d="M788.77225,803.9533l-39.64918,-0.00149v-0.50143c0.0006,-8.52288 6.90968,-15.43185 15.43256,-15.43232h0.001l7.24243,-5.49449l13.51278,5.49532l3.46111,0.00012z" fill="#2f2e41"></path><path transform="translate(-195.79078,-93.73606)" d="M775.53969,559.85l-14.77479,101.88705l4.02093,13.4064l-5.27629,9.49491l7.74835,71.46417l-3.14522,6.92449l8.78773,5.41965h17.88176l0.949,-75.48987l4.41711,-11.08355v-6.10839l8.99195,-46.032l2.07412,71.65964l2.87077,5.53736c10.69335,24.26152 25.09819,32.20527 35.28181,50.34019l17.88251,-9.68637l-0.375,-7.22386c3.59249,-1.81886 -5.39371,-7.13482 -6.25721,-11.06786l-1.564,-7.04184l-10.43147,-21.608l-0.39808,-7.60953l2.85494,-51.75609l-1.34338,-69.696l-23.45623,-17.9367z" fill="#2f2e41"></path><circle cx="602.96442" cy="319.29953" r="23.23247" fill="#ffb6b6"></circle><path transform="translate(-195.79078,-93.73606)" d="M764.42774,603.80325l-0.33908,-0.11824l4.49682,-14.61431c-1.19875,-3.82507 -0.39181,-7.99661 2.14691,-11.09871c-0.72728,-1.25882 -3.72552,-7.20329 1.15695,-12.25421c-0.29178,-1.47275 -1.76016,-10.18916 3.36389,-14.44987c0,0 9.94242,-75.35562 15.51873,-95.25953c0.16154,-1.45637 -1.14418,-13.34567 6.35635,-13.81172c3.95582,-0.24558 9.89228,-0.62141 18.80116,-1.19588c1.15076,-0.08259 1.82529,1.86094 2.84689,5.024c0.69163,2.14 -2.86727,5.06438 -2.0061,5.016l0.06076,-0.004l0.05893,0.01565c17.13006,4.59292 28.69075,20.57038 27.69622,38.27757l-2.64825,45.02572c0.40093,1.81073 8.83647,53.156 6.63136,58.66826c-1.25082,3.12631 0.8819,5.07385 2.439,6.496c0.80222,0.73274 1.38179,1.26173 1.301,1.84057c-0.06581,0.32352 -0.29237,0.59098 -0.60067,0.70909c-1.40944,0.70435 -0.6305,5.53516 0.19174,8.41481l0.08368,0.294l-0.27214,0.13971c-0.31434,0.16117 -25.52493,-11.40141 -56.15281,-11.40214c-11.54432,-0.00002 -18.21716,8.79206 -31.13134,4.28723z" fill="#0d42ff"></path><path transform="translate(-195.79078,-93.73606)" d="M817.16646,427.31967c-0.4883,-0.25102 -0.84698,-0.69765 -0.98668,-1.22862l-0.33108,-1.34869l1.018,1.0609c1.10902,-0.91773 1.6429,-2.35826 1.39986,-3.77709c-0.24304,-1.41883 -1.22594,-2.59954 -2.57718,-3.09584c-0.4479,-0.14959 -0.90756,-0.26131 -1.37415,-0.334c-0.48805,-0.07812 -0.96927,-0.19417 -1.43928,-0.34708c-2.23999,-0.96909 -3.75707,-3.10128 -3.93836,-5.53517c-0.15106,-2.10565 0.08256,-4.22121 0.68944,-6.24316c-10.25146,1.57479 -20.70456,1.26049 -30.84289,-0.92738c-1.56229,-0.32939 -3.05848,-0.91781 -4.42661,-1.74089c-2.50358,-1.48446 -4.58811,-3.58176 -6.05725,-6.09436c-0.3984,-0.69557 -0.29785,-1.56946 0.24813,-2.15636c0.37384,-0.40323 0.89778,-0.63393 1.44764,-0.63741l-0.37146,-1.00451c-0.23593,-0.63903 -0.11032,-1.35555 0.3289,-1.87623c0.43923,-0.52068 1.12434,-0.76521 1.79399,-0.64032l1.31485,0.24594l-0.12625,-0.87353c-0.09612,-0.66247 0.16496,-1.32642 0.68655,-1.746c0.52159,-0.41958 1.22607,-0.53232 1.85256,-0.29649c0.57093,0.2147 1.20724,0.16869 1.74133,-0.12593c0.53409,-0.29462 0.91243,-0.80831 1.03535,-1.40576l0.45223,-2.196l0.04547,-0.11642c2.22477,-3.70588 6.49857,-6.4 11.72558,-7.39138c4.66163,-0.88336 9.42077,-0.43731 14.02456,-0.00582c1.95233,0.03963 3.86991,0.52403 5.60684,1.41635c1.60403,0.92482 2.54977,2.67483 2.44451,4.52338c4.53284,-1.39379 9.39676,1.38289 11.80125,4.88175c2.85927,4.161 3.32132,9.38112 3.40463,13.46391c0.19719,9.65071 -1.79109,17.54671 -5.90881,23.469c-0.58981,1.00524 -1.48217,1.79841 -2.54965,2.26624c-0.27187,0.0913 -0.55691,0.13727 -0.8437,0.13607c-0.44924,0.002 -0.89194,-0.10766 -1.28832,-0.3191z" fill="#2f2e41"></path><path transform="translate(-195.79078,-93.73606)" d="M818.00176,518.79414l-17.05269,-10.90552c-10.85886,7.5108 -25.53411,33.9708 -25.53411,33.9708l-37.14114,34.313c-4.27793,0.734 -7.40987,4.43576 -7.42526,8.77617c-0.01539,4.34041 3.09023,8.06428 7.36285,8.8286c4.27262,0.76432 8.47662,-1.65195 9.96693,-5.72852l51.76259,-36.06z" fill="#ffb6b6"></path><path transform="translate(-195.79078,-93.73606)" d="M816.376,523.21919l11.35742,-27.25819l-4.1079,-15.06363c-1.66711,-6.02656 -6.60994,-10.5848 -12.75152,-11.75937v0c-8.4793,-1.56256 -16.71993,3.70971 -18.855,12.06325c-3.11067,12.212 -5.49952,28.08768 0.7833,34.3705l0.06367,0.06367z" fill="#0d42ff"></path></g></g></svg>